<svg width="374" height="276" viewBox="0 0 374 276" fill="none" xmlns="http://www.w3.org/2000/svg">
<path d="M130.506 368.92C61.173 368.92 4.96641 312.635 4.96641 243.202C4.96641 173.769 61.173 117.484 130.506 117.484C199.839 117.484 256.045 173.769 256.045 243.202C256.045 312.635 199.839 368.92 130.506 368.92Z" stroke="#6246E5"/>
<path d="M143.773 373.902C66.1971 373.902 3.3081 310.925 3.3081 233.237C3.3081 155.55 66.1972 92.5727 143.773 92.5727C221.349 92.5728 284.238 155.55 284.238 233.237C284.238 310.925 221.349 373.902 143.773 373.902Z" stroke="#6246E5"/>
<path d="M154.553 378.885C69.6494 378.885 0.820363 309.959 0.820367 224.934C0.820371 139.909 69.6494 70.9831 154.553 70.9831C239.456 70.9832 308.285 139.909 308.285 224.934C308.285 309.959 239.456 378.885 154.553 378.885Z" stroke="#6246E5"/>
<path d="M170.308 382.206C78.9933 382.206 4.96682 308.076 4.96682 216.63C4.96682 125.184 78.9933 51.0542 170.308 51.0542C261.623 51.0542 335.65 125.184 335.65 216.63C335.65 308.076 261.623 382.206 170.308 382.206Z" stroke="#6246E5"/>
<path d="M185.648 385.528C88.151 385.528 9.11266 306.378 9.11266 208.742C9.11267 111.105 88.151 31.9553 185.648 31.9553C283.146 31.9553 362.184 111.105 362.184 208.742C362.184 306.379 283.146 385.528 185.648 385.528Z" stroke="#6246E5"/>
<path d="M203.062 389.68C95.9472 389.68 9.11266 302.723 9.11266 195.456C9.11267 88.1879 95.9472 1.23143 203.062 1.23144C310.176 1.23144 397.011 88.1879 397.011 195.456C397.011 302.723 310.176 389.68 203.062 389.68Z" stroke="#6246E5"/>
</svg>
